<?xml version="1.0" standalone="no"?>
<!DOCTYPE svg PUBLIC "-//W3C//DTD SVG 1.1//EN" "http://www.w3.org/Graphics/SVG/1.1/DTD/svg11.dtd" >
<svg xmlns="http://www.w3.org/2000/svg">
<metadata></metadata>
<defs>
<font id="swansea_italic" horiz-adv-x="1140" >
<font-face units-per-em="2048" ascent="1638" descent="-410" />
<missing-glyph horiz-adv-x="567" />
<glyph horiz-adv-x="2048" />
<glyph horiz-adv-x="2048" />
<glyph unicode="&#xd;" horiz-adv-x="2048" />
<glyph unicode=" "  horiz-adv-x="567" />
<glyph unicode="&#x09;" horiz-adv-x="567" />
<glyph unicode="&#xa0;" horiz-adv-x="567" />
<glyph unicode="!" horiz-adv-x="567" d="M184 0h197l47 209h-201zM303 348h105l184 635l104 490h-200l-105 -492z" />
<glyph unicode="&#x22;" horiz-adv-x="727" d="M344 948h148l112 525h-143zM633 948h151l115 525h-151z" />
<glyph unicode="#" d="M147 432h213l-151 -432h135l152 432h256l-152 -432h135l154 432h211l45 127h-213l104 293h211l45 129h-209l150 430h-141l-148 -430h-252l148 430h-135l-152 -430h-209l-47 -129h207l-101 -293h-206zM545 559l98 293h254l-100 -293h-252z" />
<glyph unicode="$" d="M135 289q0 -166 103 -246q55 -39 122 -61q72 -23 152 -23l-43 -195h94l45 195q147 0 277 74q129 76 200 198q74 123 74 269q0 92 -43 149q-49 61 -119 94q-61 29 -209 72l105 494q109 -20 151 -70q39 -45 39 -131v-41h177q8 35 8 88q0 143 -86 223q-90 78 -258 78l28 131 h-96l-29 -131q-119 0 -225 -51q-109 -53 -182 -145q-76 -90 -101 -203l-12 -96q0 -92 51 -156q45 -55 119 -90q80 -39 178 -64l-114 -538q-115 16 -166 63q-51 45 -51 143l6 54l6 63h-180zM496 1020q27 129 102 211q72 78 199 78l-101 -469q-201 35 -200 180zM637 113 l111 520l104 -37q53 -16 84 -59q33 -45 33 -117q0 -84 -45 -154q-47 -72 -125 -112q-78 -41 -162 -41z" />
<glyph unicode="%" horiz-adv-x="1820" d="M299 995q8 -23 8 -51q23 -109 96 -162q72 -57 172 -57q111 0 213 59q100 57 164 158q63 96 64 211q0 80 -39 137q-41 59 -105 96q-68 37 -145 37q-139 0 -266 -102q-74 -61 -117 -152q-45 -90 -45 -174zM440 -41h113l1122 1481h-110zM449 1028q8 61 22 100q27 63 94 109 q66 43 135 43q76 0 121 -49q47 -53 47 -119t-37 -119q-33 -51 -92 -86q-55 -33 -123 -39q-37 0 -63 13q-31 14 -55 32q-49 43 -49 115zM1104 256l8 -51q23 -106 94 -162q74 -55 174 -55q111 0 213 59q98 57 164 154q63 94 64 207q0 76 -37 139q-39 61 -105 98 q-66 35 -143 35q-143 -1 -272 -105q-74 -61 -115 -149q-25 -53 -33 -88q-12 -43 -12 -82zM1251 285q7 53 25 100q25 68 90 111q66 41 137 41q74 0 121 -48q47 -47 47 -116q0 -68 -37 -123q-33 -55 -92 -86q-53 -33 -123 -39q-72 0 -116 45q-20 20 -37 53q-14 27 -15 62z" />
<glyph unicode="&#x26;" horiz-adv-x="1368" d="M160 240q0 -129 100 -199q51 -35 113 -55q59 -18 131 -19q141 0 258 51q121 49 221 150l104 -168h236l-195 315q80 115 121 191q47 84 74 186h-168l-49 -125q0 -2 -25 -45q-25 -47 -32 -57l-201 319q147 78 250 195q102 115 102 258q0 100 -59 166q-33 35 -74 53 q-49 16 -102 17q-133 0 -234 -52q-98 -51 -158 -135q-61 -86 -69 -178l-4 -41q0 -51 22 -106q23 -57 74 -146q-225 -96 -330 -231q-106 -137 -106 -344zM340 315l8 50q23 109 103 182q82 76 221 149l243 -407q-61 -68 -153 -113q-96 -47 -217 -47q-82 0 -142 51 q-63 51 -63 135zM680 1116q0 88 65 144q57 57 170 57q45 -6 76 -39q29 -35 29 -86q0 -88 -66 -160q-61 -66 -178 -133q-68 96 -96 217z" />
<glyph unicode="'" horiz-adv-x="456" d="M307 948q74 14 133 62q55 41 97 106q35 66 51 141l49 218h-213l-47 -220h106q-34 -192 -155 -206z" />
<glyph unicode="(" horiz-adv-x="679" d="M219 264q0 -147 47 -330q43 -168 137 -358h121q-63 197 -90 342q-31 152 -31 291q0 66 9 125q6 66 12 106q31 180 72 303q47 139 110 265q63 123 144 243q74 111 182 252h-127l-74 -86l-45 -53q-53 -57 -63 -72q-98 -125 -146 -207q-72 -117 -121 -237q-61 -146 -96 -285 q-20 -90 -31 -157q-10 -72 -10 -142z" />
<glyph unicode=")" horiz-adv-x="679" d="M-20 -424h129q139 143 245 295q102 141 181 299q76 154 114 311q39 154 39 324q0 342 -180 698h-121q109 -322 109 -635q0 -649 -516 -1292z" />
<glyph unicode="*" horiz-adv-x="796" d="M336 1212l209 -71l-176 -189l84 -67l176 190l92 -190l115 67l-101 193l238 67l-17 111l-231 -76l47 226h-125l-47 -226l-201 76z" />
<glyph unicode="+" horiz-adv-x="1196" d="M172 444h449l-97 -444h152l92 444h444l27 148h-438l92 444h-150l-96 -444h-442z" />
<glyph unicode="," horiz-adv-x="567" d="M117 -299q111 16 180 98q70 82 94 201l49 215h-217l-43 -215h109q-49 -201 -154 -209z" />
<glyph unicode="-" horiz-adv-x="679" d="M193 475h499l39 184h-504z" />
<glyph unicode="." horiz-adv-x="567" d="M180 4h211l49 215h-217z" />
<glyph unicode="/" horiz-adv-x="567" d="M-43 -41h139l832 1552h-135z" />
<glyph unicode="0" d="M195 418l6 -119q8 -104 53 -180q39 -74 121 -117q78 -43 184 -43q88 0 164 25q70 23 139 71q125 94 203 230q72 127 106 260q72 268 72 450q0 195 -92 320t-274 125q-166 0 -299 -97q-133 -96 -218 -253q-84 -154 -124 -336q-41 -182 -41 -336zM381 420q0 59 16 162 q10 63 39 190q41 174 109 291q63 109 141 162q76 51 178 51q96 0 146 -76q47 -78 47 -217q0 -63 -10 -141q-10 -76 -31 -162q-53 -229 -154 -391q-104 -164 -282 -164q-199 0 -199 295z" />
<glyph unicode="1" d="M424 1024h336l-215 -1024h190l305 1440h-141q-57 -133 -129 -187q-68 -55 -154 -65l-159 -21z" />
<glyph unicode="2" d="M51 0h989l37 168h-784q27 59 82 123q51 57 121 98l12 6q23 12 37 23q33 23 82 43l84 39l186 90q115 55 190 117q78 61 130 147q47 88 47 205l-7 90q-10 84 -65 149q-59 61 -150 97q-86 33 -194 32q-121 0 -244 -53q-117 -51 -205 -168q-86 -113 -110 -282h180q8 49 29 96 q14 41 41 84q47 80 123 127q72 45 169 45q106 0 170 -51q66 -53 66 -154q0 -96 -45 -166q-23 -37 -53 -67q-23 -25 -64 -52q-59 -43 -166 -94q-160 -80 -258 -135q-111 -68 -180 -127q-53 -47 -82 -80q-31 -37 -67 -96q-62 -98 -101 -254z" />
<glyph unicode="3" d="M147 311q0 -170 109 -260q109 -92 285 -92q109 0 231 41q113 39 205 115q90 74 141 178q53 106 53 223q0 184 -180 248q88 29 146 92q59 66 84 148q27 72 26 141q0 104 -53 170t-135 96q-90 29 -187 29q-244 0 -380 -133q-137 -133 -181 -338h176q92 311 332 311 q121 0 178 -45q59 -47 60 -131l-2 -25l-2 -22q-51 -242 -348 -242l-72 4l-33 -155l78 2q295 0 295 -197q0 -90 -49 -168q-51 -80 -129 -125q-45 -23 -88 -37t-86 -14q-150 0 -213 57q-68 55 -68 158l12 100h-188z" />
<glyph unicode="4" d="M125 352h631l-76 -352h180l76 352h213l31 156h-211l198 932h-151l-852 -912zM328 508l592 651h8l-140 -651h-460z" />
<glyph unicode="5" d="M131 289q0 -115 57 -187q55 -74 154 -108q98 -35 213 -35q113 0 213 43q102 41 188 117q88 78 138 174q49 94 65 211l6 74q0 113 -51 188q-53 76 -131 115q-78 37 -172 47l-43 2q-92 0 -172 -31q-84 -35 -117 -63l146 397h612l35 178h-744l-276 -774l156 -8q55 61 135 98 q78 37 157 37q74 0 134 -27q63 -29 96 -80q35 -57 35 -141q0 -102 -54 -192q-55 -92 -145 -146q-90 -53 -199 -65q-96 0 -168 59t-71 188h-189z" />
<glyph unicode="6" d="M184 381q0 -119 41 -217q41 -100 129 -152q90 -53 213 -53q125 0 236 49q115 51 194 137q84 90 129 201t45 229q0 104 -51 181q-51 76 -141 118q-94 41 -186 41q-66 0 -131 -18q-63 -14 -125 -55q-63 -41 -109 -99h-8q33 123 96 250q57 121 154 205q94 82 223 82 q88 0 137 -59q49 -57 49 -164h176l2 30l3 37q0 98 -39 168q-37 66 -119 109q-74 39 -199 39q-123 0 -241 -60q-115 -61 -203 -170q-92 -115 -156 -278q-69 -176 -102 -383zM369 360l8 56l10 53q35 123 127 207q90 80 221 80q109 0 178 -58q68 -57 68 -166q0 -102 -45 -190 q-39 -90 -125 -154q-82 -63 -178 -63q-74 0 -135 29t-95 82q-35 53 -34 124z" />
<glyph unicode="7" d="M281 0h198q102 260 236 487q76 125 141 220q72 102 148 196q51 61 161 180q82 86 174 168l33 160h-995l-41 -178h792l-235 -254q-96 -109 -209 -254q-123 -160 -221 -334q-108 -188 -182 -391z" />
<glyph unicode="8" d="M147 297q0 -29 9 -59q6 -39 20 -74q39 -94 148 -150q109 -55 243 -55q56 0 113 8q131 25 240 103t172 190q63 113 63 244q0 90 -43 160q-43 68 -125 104q135 53 195 162q61 109 61 203q0 88 -39 157q-39 72 -123 111q-80 39 -209 39q-133 0 -256 -60q-123 -63 -192 -166 q-72 -111 -84 -237q0 -145 143 -213q-113 -35 -184 -109q-76 -76 -113 -172q-20 -53 -28 -96q-10 -51 -11 -90zM344 328q6 67 33 141q37 90 129 149q88 57 219 58q98 0 166 -55q66 -59 65 -185q-10 -94 -53 -164q-39 -68 -115 -106q-82 -41 -188 -41t-182 53q-74 53 -74 150 zM528 1008q2 23 11 53q4 17 10 35q74 184 291 184q94 0 153 -47t60 -137q0 -76 -54 -142q-51 -63 -122 -92q-70 -31 -138 -31q-82 0 -147 48q-63 51 -64 129z" />
<glyph unicode="9" d="M168 272q0 -123 84 -213q82 -92 272 -92q315 0 475 271q158 270 222 542q27 133 26 252q0 416 -391 416q-129 0 -233 -49q-106 -53 -179 -137q-76 -90 -116 -201q-20 -49 -39 -119q-16 -61 -17 -115q0 -102 47 -180t132 -119q86 -41 192 -41q98 0 209 48q100 45 156 124 l4 -4q-49 -145 -94 -237q-55 -113 -109 -170q-57 -68 -121 -98q-59 -33 -135 -33q-94 0 -145 51q-55 49 -56 135l4 49h-180l-4 -39zM461 852q20 182 108 309q86 123 254 123q121 0 181 -59q57 -57 57 -164q0 -106 -45 -201q-45 -94 -129 -153q-84 -60 -182 -60 q-244 0 -244 205z" />
<glyph unicode=":" horiz-adv-x="567" d="M180 0h211l49 215h-217zM356 840h211l49 217h-213z" />
<glyph unicode=";" horiz-adv-x="567" d="M117 -299q70 8 127 51q57 45 90 105q27 47 39 82q4 12 10 26q4 14 8 27l49 223h-217l-43 -215h109q-16 -78 -53 -137q-42 -64 -101 -72zM356 840h215l45 217h-213z" />
<glyph unicode="&#x3c;" horiz-adv-x="1196" d="M193 449l911 -424l33 163l-729 332l872 332l33 160l-1090 -420z" />
<glyph unicode="=" horiz-adv-x="1196" d="M129 236h1038l33 149h-1040zM215 647h1040l33 154h-1040z" />
<glyph unicode="&#x3e;" horiz-adv-x="1196" d="M102 25l1090 424l33 139l-910 428l-36 -164l729 -332l-875 -332z" />
<glyph unicode="?" d="M328 1012h184q25 125 78 196q51 68 119 97q66 27 155 26q86 0 137 -51t52 -135q0 -59 -25 -113q-27 -57 -63 -94q-10 -10 -21 -20q-12 -10 -22 -21q-6 -6 -23 -20q-16 -16 -25 -23l-94 -74q-100 -82 -159 -170q-31 -45 -50 -98q-18 -43 -34 -135h180l20 72q14 59 35 96 q4 6 6 8q18 25 25 33q8 10 10 12q18 25 29 37q31 31 57 53q53 45 84 68q102 78 160 141q57 63 74 113q18 55 24 77q6 31 6 72q0 98 -41 174t-116 115q-78 41 -166 41q-174 0 -301 -70q-135 -72 -203 -176q-74 -106 -92 -231zM453 0h198l45 209h-196z" />
<glyph unicode="@" horiz-adv-x="2080" d="M440 567q0 -141 54 -258q51 -115 143 -194q88 -76 201 -117q104 -39 229 -39q104 0 199 25q104 27 192 69q184 88 338 266h-139q-106 -100 -248 -163q-143 -68 -281 -68q-244 0 -393 135q-70 63 -106 154q-37 90 -37 203q0 74 16 149q16 80 47 148q57 143 162 260 q102 115 246 178q143 66 297 65q172 0 297 -67q92 -57 137 -152q45 -92 45 -200q0 -117 -51 -234q-51 -121 -141 -211q-88 -88 -203 -104l-21 4q-12 8 -14 28q0 25 18 64l17 41l297 592h-146l-63 -129q-39 160 -215 159q-63 0 -123 -18q-68 -23 -121 -57q-111 -68 -188 -170 q-80 -104 -119 -211q-41 -111 -41 -199q8 -98 68 -166q33 -37 73 -55q37 -18 86 -19q41 0 84 13q45 14 78 33q80 43 129 86q0 -131 109 -132q113 0 268 105l51 39q35 29 45 39q20 18 51 51q53 59 105 135q49 74 76 174q25 96 24 180q0 115 -39 207t-118 166q-82 70 -185 103 q-100 33 -225 32q-152 0 -297 -51q-147 -51 -287 -153q-133 -98 -219 -226q-92 -130 -131 -280q-6 -33 -18 -105q-12 -70 -13 -125zM899 575q0 55 21 105q16 49 53 104q72 111 160 177q82 63 159 63q57 0 99 -41q41 -41 41 -98q0 -80 -56 -183q-55 -102 -125 -165 q-57 -55 -112 -84q-53 -29 -103 -29q-57 0 -98 43q-39 43 -39 108z" />
<glyph unicode="A" horiz-adv-x="1368" d="M29 0h202l244 428h592l57 -428h215l-219 1473h-223zM575 604l381 647l80 -647h-461z" />
<glyph unicode="B" horiz-adv-x="1368" d="M152 0h659q104 0 215 41q100 37 188 113q84 74 127 170q47 104 48 208q0 88 -50 158q-49 68 -151 103q125 51 196 163q72 109 72 269q-8 102 -90 176q-80 74 -274 74h-627zM387 168l109 520h411q145 0 211 -51q66 -53 66 -141q0 -92 -49 -166q-47 -76 -127 -117 q-82 -45 -172 -45h-449zM532 848l97 452h370q252 0 252 -155q0 -141 -96 -219t-240 -78h-383z" />
<glyph unicode="C" horiz-adv-x="1480" d="M215 487q0 -182 78 -303q76 -119 194 -170q119 -53 252 -53l49 2q55 0 121 17q66 16 119 36q111 41 205 117q90 72 162 176q66 94 112 232h-190q-80 -211 -225 -308q-147 -98 -304 -98q-190 0 -274 111q-86 109 -86 278l4 60l4 57q18 188 103 350q82 156 219 252 q135 92 295 92q156 0 256 -69q100 -70 100 -238h190v39q0 217 -131 330q-130 112 -360 112h-4l-60 -2q-63 0 -122 -14q-61 -14 -129 -41q-123 -47 -236 -143q-115 -102 -197 -256q-45 -84 -73 -174q-33 -88 -51 -199q-14 -70 -17 -96q-4 -45 -4 -97z" />
<glyph unicode="D" horiz-adv-x="1480" d="M164 0h612q182 0 328 88q145 86 250 231q102 145 157 322q53 178 54 340q0 117 -39 225q-41 109 -158 191q-121 78 -340 78h-549zM399 172l242 1128h354q360 0 361 -364q0 -131 -33 -254q-35 -133 -102 -248q-70 -119 -177 -190q-106 -72 -235 -72h-410z" />
<glyph unicode="E" horiz-adv-x="1368" d="M176 0h1084l40 176h-888l104 492h805l39 176h-805l92 452h877l37 177h-1074z" />
<glyph unicode="F" horiz-adv-x="1251" d="M176 0h201l139 668h723l37 176h-721l92 452h821l39 177h-1015z" />
<glyph unicode="G" horiz-adv-x="1591" d="M223 516q0 -74 19 -147q14 -70 47 -136q63 -123 168 -192q106 -82 295 -82q82 0 151 14q72 14 144 43q74 29 139 72q72 49 123 100l4 -188h131l168 788h-643l-41 -172h456q-23 -145 -96 -249q-78 -111 -188 -168q-74 -39 -117 -52q-55 -16 -111 -16l-53 -2 q-111 0 -203 41q-86 39 -133 129q-51 88 -51 221q12 135 53 285q39 139 113 258q41 66 86 111t102 83q115 74 263 74q137 0 225 -35q84 -35 121 -98t49 -174h192v51q0 100 -41 185q-37 78 -114 139q-80 57 -170 84q-89 26 -184 26h-7h-20l-21 -2q-63 0 -133 -16 q-49 -12 -153 -51q-150 -59 -287 -203q-143 -147 -225 -397q-23 -70 -41 -166q-16 -86 -17 -158z" />
<glyph unicode="H" horiz-adv-x="1480" d="M160 0h196l148 688h768l-144 -688h195l313 1473h-196l-131 -609h-768l127 609h-197z" />
<glyph unicode="I" horiz-adv-x="567" d="M188 0h199l313 1473h-200z" />
<glyph unicode="J" horiz-adv-x="1024" d="M92 252q0 -293 373 -293q53 0 115 16q61 16 106 41q102 53 172 148q72 96 98 209l236 1100h-201l-223 -1053q-31 -156 -98 -219q-35 -35 -82 -51q-45 -18 -109 -19l-18 -2q-84 0 -129 47q-43 47 -43 117q6 57 35 178h-189q-20 -61 -31 -119q-12 -55 -12 -100z" />
<glyph unicode="K" horiz-adv-x="1368" d="M156 0h200l109 516l278 219l357 -735h260l-445 877l742 596h-277l-864 -713l152 713h-199z" />
<glyph unicode="L" d="M156 0h944l37 176h-746l277 1297h-199z" />
<glyph unicode="M" horiz-adv-x="1703" d="M147 0h197l260 1237l152 -1237h196l680 1237l-264 -1237h193l311 1473h-281l-688 -1246l-155 1246h-283z" />
<glyph unicode="N" horiz-adv-x="1480" d="M156 0h192l256 1188l492 -1188h227l313 1473h-192l-256 -1188l-483 1188h-236z" />
<glyph unicode="O" horiz-adv-x="1591" d="M215 580q0 -166 39 -277q39 -115 117 -192q80 -78 186 -115q109 -37 252 -37q190 0 350 82q164 80 283 221q117 135 182 313q39 106 51 179q16 88 17 178q0 147 -39 252q-39 109 -113 180q-78 72 -186 111q-110 36 -250 36h-8q-250 0 -457 -147q-104 -76 -178 -162 q-78 -88 -133 -198q-113 -215 -113 -424zM420 571q0 29 4 66q0 10 8 53q6 35 8 53q31 143 115 281q86 137 223 223q139 88 318 88q55 0 110 -16q53 -18 99 -49q90 -57 135 -154q45 -96 45 -219q0 -145 -49 -281q-51 -137 -144 -243q-92 -109 -211 -172q-121 -66 -258 -66 q-211 0 -307 129q-96 131 -96 307z" />
<glyph unicode="P" horiz-adv-x="1368" d="M176 0h201l131 621h469q158 0 283 77q119 76 184 199q63 119 63 248q0 139 -84 235q-82 94 -247 95h-689zM545 793l106 507h436q213 0 213 -176q0 -92 -43 -170q-45 -76 -122 -118q-80 -43 -174 -43h-416z" />
<glyph unicode="Q" horiz-adv-x="1591" d="M213 520q0 -272 160 -414q158 -143 403 -143q207 0 412 96l188 -176l127 121l-168 156q55 51 82 80q41 43 68 79q61 86 110 187q43 96 68 203q25 109 25 215q0 262 -144 424q-144 163 -429 163h-3q-111 0 -221 -28q-111 -31 -199 -86q-182 -109 -295 -279 q-114 -174 -157 -362q-27 -125 -27 -236zM416 563q0 66 18 139q14 63 41 144q45 135 135 250q92 115 213 176q125 63 277 63q104 0 192 -49t142 -145q51 -96 51 -238q0 -121 -31 -235q-37 -123 -96 -217q-63 -100 -150 -170l-155 143l-129 -121l133 -119q-61 -23 -125 -37 q-57 -12 -123 -12q-178 0 -287 121q-106 119 -106 307z" />
<glyph unicode="R" horiz-adv-x="1480" d="M176 -4h211l125 637h469q129 0 180 -43t51 -121q0 -66 -12 -150l-26 -167q-10 -61 -13 -82q-2 -16 -2 -70h246l4 33q-47 23 -53 80l47 239q16 104 16 185q0 141 -127 188q137 66 213 184q78 121 78 262q0 160 -108 234q-106 70 -279 70h-704zM549 801l106 499h482 q235 0 235 -162q0 -91 -41 -171q-43 -76 -121 -123q-76 -43 -174 -43h-487z" />
<glyph unicode="S" horiz-adv-x="1368" d="M184 344q0 -143 80 -233q74 -82 182 -117q111 -35 218 -35q74 0 141 10q63 10 127 25q100 27 147 51q29 16 43 25q18 12 41 30q102 84 154 191q51 106 51 225q0 113 -63 182q-63 72 -240 111l-344 84q-39 0 -98 31t-60 112l12 64q29 98 115 166q45 37 107 55 q59 18 135 18q182 0 258 -69q78 -72 78 -174l-2 -29l-2 -27h188q2 14 6 43q2 8 2 15q2 14 2 55q0 229 -153 291q-78 33 -168 51q-92 16 -176 16q-164 0 -289 -69q-127 -70 -211 -191q-82 -123 -105 -274q0 -201 248 -264l404 -105q151 -37 151 -166q0 -106 -61 -174 q-66 -72 -164 -104q-104 -35 -199 -35l-45 4l-47 2q-139 12 -203 84q-68 74 -67 176l10 80h-186q-4 -14 -6 -37q0 -4 -2 -22q-4 -35 -9 -72z" />
<glyph unicode="T" horiz-adv-x="1251" d="M303 1296h502l-277 -1296h199l272 1296h500l37 177h-1192z" />
<glyph unicode="U" horiz-adv-x="1480" d="M252 352q0 -186 133 -289q131 -100 387 -100q150 0 291 70q143 72 240 200q98 135 133 312l196 928h-196l-203 -953q-12 -53 -23 -78q-20 -49 -34 -73q-39 -70 -97 -121q-57 -51 -129 -80q-45 -18 -78 -25q-31 -8 -75 -8q-340 0 -340 277l10 63l4 45l205 953h-201 l-207 -981l-2 -13q-4 -31 -6 -51q-4 -27 -8 -70v-6z" />
<glyph unicode="V" horiz-adv-x="1368" d="M356 1473l224 -1473h208l852 1473h-225l-688 -1258l-152 1258h-219z" />
<glyph unicode="W" horiz-adv-x="1931" d="M344 1473l72 -1473h213l600 1221l76 -1221h211l700 1473h-219l-529 -1197h-8l-71 1197h-218l-591 -1197l-21 1197h-215z" />
<glyph unicode="X" horiz-adv-x="1368" d="M41 0h240l534 604l264 -604h248l-354 756l647 717h-240l-491 -566l-252 566h-252l340 -717z" />
<glyph unicode="Y" horiz-adv-x="1368" d="M344 1473l365 -877l-125 -596h200l123 592l746 881h-234l-575 -709l-273 709h-227z" />
<glyph unicode="Z" horiz-adv-x="1251" d="M47 0h1157l35 176h-903l1145 1124l35 173h-1088l-41 -177h838l-1145 -1132z" />
<glyph unicode="[" horiz-adv-x="567" d="M43 -399h385l29 143h-221l339 1587h222l26 150h-379z" />
<glyph unicode="\" horiz-adv-x="567" d="M289 1511l172 -1552h135l-176 1552h-131z" />
<glyph unicode="]" horiz-adv-x="567" d="M-31 -399h387l400 1880h-383l-33 -150h217l-336 -1587h-219z" />
<glyph unicode="^" horiz-adv-x="960" d="M88 541h156l504 702l200 -702h156l-248 870h-147z" />
<glyph unicode="_" d="M-55 -256h1138l25 104h-1141z" />
<glyph unicode="`" horiz-adv-x="679" d="M348 1503l205 -286h135l-121 286h-219z" />
<glyph unicode="a" d="M125 205q0 -109 82 -172q84 -66 213 -66q61 0 139 23q10 2 19 6q45 14 57 20q14 4 49 25l16 8q76 43 127 94l-8 -43q0 -116 155 -116h3q68 0 110 20l29 125q-37 0 -67 -8q-49 10 -50 35l9 37l129 612q2 4 4 12t4 19v32q0 109 -86 172q-88 63 -279 64q-147 0 -252 -49 q-102 -51 -161 -129q-61 -80 -82 -178h168q39 125 114 165q72 39 168 39q229 0 230 -137l-2 -16l-2 -15l-13 -36q-6 -37 -33 -64q-26 -27 -67 -33q-129 -12 -281 -33q-104 -14 -198 -51q-86 -33 -146 -102q-61 -66 -88 -180l-6 -39zM319 264q0 92 62 142q59 49 113 57 l204 33q150 20 205 49l-43 -189q-25 -115 -135 -174q-63 -31 -115 -45q-66 -16 -123 -16l-16 -4q-82 0 -117 37q-35 38 -35 110z" />
<glyph unicode="b" d="M121 0h168l30 131q66 -164 261 -164q94 0 176 29t151 86q137 113 215 293q74 176 74 356q0 168 -88 268t-272 101q-174 0 -336 -164l112 537h-180zM381 369l14 127l41 141q12 33 29 70q16 37 37 65q49 74 121 121q78 47 182 47q203 0 203 -240q0 -92 -25 -188 q-27 -102 -76 -188q-51 -88 -129 -142q-78 -53 -182 -53q-215 0 -215 240z" />
<glyph unicode="c" horiz-adv-x="1024" d="M152 352q0 -166 98 -274q98 -111 282 -111t322 107q135 104 207 307h-176q-16 -55 -60 -109q-31 -37 -53 -57q-23 -20 -61 -45q-70 -45 -162 -45q-100 10 -148 68q-53 66 -53 180q14 135 58 270q41 131 126 213q88 84 224 84q121 0 159 -63q41 -66 41 -164h172l2 37l3 38 q0 174 -101 244q-103 72 -244 72q-76 0 -143 -19q-76 -25 -135 -59q-127 -70 -217 -209t-129 -346z" />
<glyph unicode="d" d="M168 381q0 -86 22 -160q23 -72 66 -131t109 -90q63 -33 147 -33q113 0 199 39q92 39 174 141l-33 -147h172l311 1473h-180l-119 -562q-39 106 -116 150q-80 43 -193 43q-63 0 -123 -19q-66 -23 -112 -53q-100 -63 -168 -168q-72 -109 -111 -231q-27 -86 -35 -133 q-10 -61 -10 -119zM352 387q0 72 15 131q10 53 34 129q37 121 123 207t215 86q225 0 226 -248q0 -139 -39 -262q-39 -129 -125 -217q-88 -88 -221 -88q-227 0 -228 262z" />
<glyph unicode="e" d="M172 348q0 -174 102 -276q102 -104 289 -105q184 0 332 99q145 98 221 270h-180q-37 -84 -127 -148q-90 -63 -188 -63q-260 0 -261 235q2 8 2 19q4 29 7 43q2 23 6 49l2 8h782q25 115 25 230q0 182 -82 288t-271 107q-256 0 -421 -168q-166 -168 -217 -432zM403 621 q25 100 86 170q57 70 138 110q76 39 149 39q231 0 232 -235l-4 -84h-601z" />
<glyph unicode="f" horiz-adv-x="567" d="M176 0h180l197 924h178l33 147h-180q20 111 39 168q16 49 41 68q27 20 79 20l37 -2l39 -2l33 166l-43 2l-41 2q-272 0 -324 -229l-41 -193h-147l-33 -147h150z" />
<glyph unicode="g" d="M88 -131q0 -182 94 -252t254 -70q127 0 232 35q104 35 178 103t123 168q49 106 75 227l207 991h-172l-30 -156q-88 185 -252 185q-154 0 -275 -68q-123 -68 -203 -184q-82 -123 -114 -273l-2 -12q-16 -74 -21 -98q-6 -43 -6 -100q0 -184 98 -289q98 -104 285 -105 q88 0 176 43t133 107q-76 -420 -399 -420q-201 0 -201 168h-180zM365 385l20 160q82 395 379 395q213 0 213 -252q0 -125 -41 -258q-41 -129 -133 -217q-88 -88 -228 -88q-211 0 -210 260z" />
<glyph unicode="h" d="M131 0h180l125 575q35 158 103 236q74 82 133 102l51 17l14 4q31 6 56 6q113 0 153 -35q41 -35 41 -104l-10 -101l-154 -700h185l155 743l8 97q0 80 -41 143q-45 61 -112 90q-70 31 -150 31q-182 0 -356 -176l117 545h-180z" />
<glyph unicode="i" horiz-adv-x="456" d="M135 0h180l230 1071h-180zM403 1268h185l45 205h-180z" />
<glyph unicode="j" horiz-adv-x="456" d="M-125 -424l37 -2l51 -2q270 0 322 272l16 80l23 101l221 1046h-180l-256 -1206l-19 -62q-10 -31 -22 -43q-16 -16 -45 -22q-27 -6 -78 -6h-37zM403 1268h185l45 205h-180z" />
<glyph unicode="k" horiz-adv-x="1024" d="M135 0h176l84 403l180 138l222 -541h231l-293 672l494 399h-230l-555 -450l181 852h-172z" />
<glyph unicode="l" horiz-adv-x="456" d="M135 0h184l314 1473h-180z" />
<glyph unicode="m" horiz-adv-x="1703" d="M131 0h180l129 584q29 139 92 219q68 80 134 108q74 29 131 29q131 0 131 -135l-2 -33l-2 -29l-160 -743h180l139 651q16 74 64 140q49 72 115 108q70 41 139 41q156 0 155 -152l-2 -24l-4 -35l-6 -37l-147 -692h180l160 743q8 31 8 105q0 98 -43 156q-43 57 -103 79 q-55 20 -122 21q-111 0 -183 -39q-66 -35 -182 -137q-20 72 -74 125q-51 51 -174 51q-201 0 -364 -184l32 151h-172l-4 -22z" />
<glyph unicode="n" d="M131 0h180l129 584q29 139 92 219q68 80 134 108q74 29 131 29q100 0 139 -39q41 -41 41 -121q0 -55 -12 -121l-138 -659h181l155 727q12 61 13 109q0 102 -48 165q-47 61 -116 82q-68 20 -148 21q-119 0 -213 -57q-88 -55 -151 -127l32 151h-172l-4 -22z" />
<glyph unicode="o" d="M168 381q0 -92 27 -164q25 -72 73 -131q98 -115 295 -115q131 0 252 60q119 59 203 162q41 45 78 110q35 61 53 119q25 72 35 129q12 66 12 129q0 115 -41 215q-39 96 -129 154q-88 55 -221 55q-164 0 -291 -82q-129 -82 -213 -211q-86 -133 -113 -274q0 -2 -2 -13 q-2 -29 -8 -55q-10 -51 -10 -88zM356 399l9 80l8 58q35 152 131 280q94 131 268 131q236 0 236 -284q0 -59 -13 -125q-10 -59 -34 -123q-49 -125 -144 -205q-94 -82 -221 -82q-240 0 -240 270z" />
<glyph unicode="p" d="M29 -424h180l119 537q27 -63 94 -105q66 -41 158 -41q178 0 323 115q139 113 217 289q76 172 76 354q0 117 -39 201q-39 86 -119 133q-78 45 -190 45q-63 0 -117 -12q-51 -12 -90 -39q-23 -16 -68 -52l-6 -6q-25 -20 -84 -75l33 151h-168l-100 -446zM377 369l14 114 q25 100 70 215q41 102 123 172q78 70 196 70q227 0 228 -235q0 -84 -23 -191q-20 -98 -72 -190q-55 -96 -127 -146q-78 -53 -174 -53q-92 0 -163 59q-72 59 -72 185z" />
<glyph unicode="q" d="M168 377q0 -176 88 -291q88 -119 281 -119q100 0 182 43q70 33 137 103l-113 -537h181l96 449l219 1046h-168l-39 -151q-18 39 -41 71q-23 31 -53 60q-59 53 -186 53q-188 0 -314 -107q-129 -109 -192 -274q-35 -92 -58 -180q-20 -80 -20 -166zM352 387q0 106 31 205 q31 96 80 184q90 164 289 164q217 0 217 -256q0 -86 -25 -201q-39 -190 -151 -274q-115 -84 -222 -84q-106 0 -161 70q-27 41 -43 86q-14 43 -15 106z" />
<glyph unicode="r" horiz-adv-x="679" d="M156 0h180l135 625q16 78 64 143q45 61 118 102q72 37 152 37h67l43 189q-25 8 -47 8q-182 0 -348 -211l35 178h-170l-4 -22z" />
<glyph unicode="s" horiz-adv-x="1024" d="M129 240q0 -272 391 -273q115 0 238 53q117 51 192 150q74 96 74 217q0 86 -57 137q-53 49 -187 84l-172 43q-49 12 -80 25q-25 8 -51 22q-41 25 -41 62q49 188 252 188q219 0 219 -137l-2 -23l-2 -20h176l2 23l2 36q0 74 -26 127q-25 59 -103 107q-76 43 -215 43 q-104 0 -207 -37q-104 -41 -174 -117q-72 -78 -94 -190l-4 -31l-4 -33q0 -150 201 -196l194 -51q98 -20 142 -50q43 -31 43 -80q0 -66 -43 -108q-45 -43 -109 -64q-65 -22 -126 -22h-5q-250 0 -250 168l8 51h-172q-8 -47 -8 -68q-2 -12 -2 -36z" />
<glyph unicode="t" horiz-adv-x="567" d="M209 129q0 -145 178 -145l141 16l27 139h-63q-39 0 -66 15q-27 14 -27 69l154 701h172l31 147h-176l63 301h-178l-66 -301h-143l-33 -147h150l-154 -709l-6 -43z" />
<glyph unicode="u" d="M193 209q0 -82 43 -141q47 -57 110 -78q68 -23 133 -23q123 0 213 47q41 18 88 60q35 31 84 82l-33 -156h173l4 25l221 1046h-180l-125 -592q-16 -86 -60 -164q-45 -80 -125 -135t-186 -55q-168 0 -168 156l10 79l154 711h-180l-164 -772z" />
<glyph unicode="v" horiz-adv-x="1024" d="M244 1071l4 -22l160 -1049h192l16 25l621 1046h-197l-491 -870l-96 870h-209z" />
<glyph unicode="w" horiz-adv-x="1480" d="M256 1071l4 -22l76 -1049h188l383 831h8l41 -831h189l10 25l524 1046h-180l-395 -840l-4 -4l-29 844h-203l-389 -844l-26 844h-197z" />
<glyph unicode="x" horiz-adv-x="1024" d="M25 0h223l348 403l180 -403h228l-261 553l474 518h-222l-327 -375l-168 375h-232l248 -518z" />
<glyph unicode="y" horiz-adv-x="1024" d="M33 -424q49 -16 135 -16q76 0 135 34q57 33 131 136q90 127 187 290l198 336l178 306l232 409h-197l-477 -870l-98 870h-209l168 -1100l-109 -170q-31 -47 -61 -61q-33 -16 -78 -16q-51 0 -105 16z" />
<glyph unicode="z" horiz-adv-x="1024" d="M63 0h898l30 147h-655l805 777l30 147h-831l-33 -147h596l-807 -785z" />
<glyph unicode="{" horiz-adv-x="684" d="M188 479q53 0 84 -47q31 -45 31 -129l-2 -43l-4 -47l-74 -348l-10 -74q0 -86 49 -137q47 -53 115 -53h135l29 131h-88q-68 0 -68 96l2 37l4 35l78 344v22l2 45q0 176 -123 234q82 29 137 90q35 41 50 61q10 14 26 52l31 83l72 349q37 168 133 168h88l26 133h-135 q-53 0 -108 -31q-57 -39 -97 -92q-41 -61 -59 -141l-76 -353q-25 -117 -88 -186q-66 -74 -135 -74z" />
<glyph unicode="|" horiz-adv-x="532" d="M184 -41h148l112 506l222 1046h-150l-113 -503z" />
<glyph unicode="}" horiz-adv-x="684" d="M0 -399h135q57 0 109 32q57 29 102 95q41 59 57 137l72 348q25 113 90 190q63 76 135 76l25 125q-53 0 -88 47q-33 45 -33 121l6 39l6 53l76 353q8 35 8 71q0 90 -49 142q-47 51 -114 51h-138l-26 -133h92q63 0 63 -88l-8 -80l-71 -349l-9 -75q0 -84 33 -135 q31 -51 90 -80q-82 -33 -133 -97q-49 -61 -74 -112q0 -4 -6 -19q-4 -8 -8 -18q-12 -25 -18 -51l-76 -344q-31 -168 -127 -168h-92z" />
<glyph unicode="~" horiz-adv-x="1196" d="M227 483l49 -114q94 147 203 147q61 0 137 -35l144 -69q76 -35 137 -35q145 0 291 176l-47 115q-51 -59 -109 -109q-47 -39 -104 -39q-43 0 -193 76q-133 63 -215 63q-154 0 -293 -176z" />
<glyph unicode="&#xa1;" horiz-adv-x="679" d="M156 -399h200l101 479l88 641h-101l-188 -649zM424 860h197l47 211h-199z" />
<glyph unicode="&#xa2;" d="M193 356q0 -233 194 -360l-119 -232h84l105 211q66 -12 131 -12q115 0 217 45q106 43 190 137q86 96 138 228h-177q-12 -51 -55 -109q-49 -61 -115 -104q-72 -47 -165 -47l-84 12l391 790q96 -41 96 -210h168l2 53q0 244 -190 313l96 205h-80l-92 -189q-51 12 -113 13 q-141 0 -254 -64q-115 -66 -192 -170q-82 -109 -127 -243q-27 -82 -37 -140q-12 -57 -12 -127zM381 381q0 63 8 106q10 51 19 84q23 96 77 183q59 92 140 141q78 51 172 51l59 -6l-387 -784q-88 76 -88 225z" />
<glyph unicode="&#xa3;" d="M100 117l72 -142l104 50q78 31 152 30h33l10 -2q35 -4 55 -8q25 -6 52 -14q18 -2 61 -19l113 -30q57 -10 92 -11q135 0 276 92l-55 138q-53 -33 -92 -45q-53 -18 -88 -21q-39 0 -121 29l-109 37q-23 8 -45 8h-47q-119 0 -287 -78q150 90 244 221q96 133 96 295h281 l27 129h-340q-25 61 -37 117q-14 49 -15 98q0 94 48 170q47 72 122 111q84 45 175 45q35 0 94 -17q53 -14 96 -65q41 -53 41 -139l-8 -92h180q12 66 12 137q0 328 -407 327q-47 0 -105 -10q-59 -14 -102 -33q-100 -39 -174 -104q-72 -59 -121 -156q-47 -94 -47 -196 q0 -43 12 -92q9 -42 29 -101h-146l-26 -129h219q12 -39 12 -92q0 -217 -336 -438z" />
<glyph unicode="&#xa4;" d="M121 293l72 -92l139 118q49 -55 123 -81q80 -29 157 -29q190 0 328 110l88 -118l117 92l-88 115q90 92 133 200q47 113 47 223q0 115 -53 193l139 113l-80 100l-139 -117q-43 51 -115 78t-162 27t-170 -27q-82 -27 -149 -78l-92 117l-119 -100l90 -113 q-156 -141 -182 -424q0 -61 14 -104q14 -47 37 -88zM360 643l5 39l4 39q23 96 86 178q66 80 157 131q92 49 189 49q82 0 145 -39q68 -41 101 -104q33 -61 32 -148q0 -109 -61 -210q-61 -102 -164 -164q-100 -61 -211 -62q-125 0 -203 84q-80 84 -80 207z" />
<glyph unicode="&#xa5;" d="M164 377h391l-80 -377h184l80 377h394l26 119h-395l41 172h391l29 120h-322l529 621h-203l-490 -604l-231 604h-205l264 -621h-315l-25 -120h394l-37 -172h-396z" />
<glyph unicode="&#xa6;" horiz-adv-x="567" d="M184 -41h148l112 506l222 1046h-150l-113 -503z" />
<glyph unicode="&#xa7;" d="M152 -106v-7q0 -125 79 -198q39 -37 97 -58q61 -23 125 -22q109 0 225 47q111 45 184 135q74 88 74 193q0 88 -59 184q49 29 73 45q39 25 64 49q68 61 106 133q39 72 39 154l-10 98q-8 37 -41 82q-33 43 -113 105q-78 59 -215 143q-141 88 -151 194q0 74 71 127 q72 53 152 54q164 0 164 -144q0 -18 -2 -32t-6 -39h176q12 53 12 106q0 84 -35 143t-102 91q-68 31 -156 30q-102 0 -182 -32q-82 -33 -148 -93q-63 -57 -100 -129q-20 -49 -27 -73q-10 -41 -10 -72q0 -41 17 -80q16 -39 43 -72q-72 -14 -140 -63q-68 -55 -106 -129 q-41 -78 -41 -156l4 -33l2 -34q27 -123 162 -217l223 -177q147 -100 148 -198q0 -61 -37 -101q-43 -43 -97 -59q-55 -20 -114 -20q-164 0 -164 151l4 37l4 35h-176l-2 -6q-4 -23 -6 -41q-4 -18 -8 -51zM391 633q0 74 62 147q25 29 63 62q37 27 64 35l297 -209 q106 -76 106 -181q0 -66 -51 -129q-49 -61 -144 -106l-313 235q-74 57 -84 146z" />
<glyph unicode="&#xa8;" horiz-adv-x="679" d="M344 1239h188l43 209h-184zM680 1239h184l43 209h-182z" />
<glyph unicode="&#xa9;" horiz-adv-x="1507" d="M109 567q0 -174 84 -313q86 -141 229 -217q146 -78 326 -78q184 0 356 74q170 74 311 209q139 133 219 303q78 172 78 354q0 131 -45 242q-45 113 -135 198q-80 78 -197 123t-256 45q-166 0 -313 -57q-156 -59 -289 -162q-137 -106 -225 -248q-90 -145 -123 -305 q-14 -63 -16 -84q-4 -37 -4 -84zM264 584l21 151q37 176 151 328q115 152 279 233q166 84 338 84q152 0 264 -63q113 -63 176 -176t63 -264q0 -154 -63 -293q-63 -143 -172 -254q-106 -109 -250 -176q-143 -66 -295 -66q-147 0 -266 66q-119 63 -182 176q-63 109 -64 254z M469 621q0 -158 100 -259q100 -102 271 -102q137 0 264 90q125 88 184 242h-135q-25 -57 -63 -100q-49 -49 -103 -72q-57 -25 -119 -25q-111 0 -176 74q-63 70 -63 178q23 182 114 305q92 123 265 123q94 0 151 -49t58 -133h135q0 160 -86 240t-234 79q-135 0 -250 -61 q-117 -61 -194 -170q-76 -106 -105 -242q-6 -25 -10 -59v-4q-4 -37 -4 -55z" />
<glyph unicode="&#xaa;" horiz-adv-x="755" d="M205 621h606l16 100h-608zM256 981q0 -70 47 -111q43 -37 137 -47q66 0 140 29q72 29 141 80l-4 -33q2 -25 14 -41q8 -14 31 -20l47 -15l45 8l35 9l18 88q-14 0 -22 -2q-14 -2 -25 -6q-14 4 -18 8q-4 2 -11 8l5 20l75 367l2 25l2 24q0 82 -63 109q-61 27 -184 26 q-70 0 -138 -24q-63 -25 -114 -76q-48 -49 -60 -115h113q12 55 66 84q53 29 116 29q66 0 101 -21q37 -20 36 -61l-8 -27q-12 -37 -41 -49q-20 -8 -41 -10q-37 -4 -57 -4l-78 -4q-260 -27 -307 -248zM391 1008q0 37 29 69q31 31 65 39q31 8 113 14l107 15q37 8 51 22l-21 -96 q-6 -37 -47 -67q-39 -33 -96 -50q-63 -23 -109 -22q-45 6 -61 22t-31 54z" />
<glyph unicode="&#xab;" d="M297 471l270 -252l37 180l-180 168l252 164l41 180l-377 -252zM709 471l268 -252l39 180l-180 168l247 164l41 180l-376 -252z" />
<glyph unicode="&#xac;" horiz-adv-x="1196" d="M215 647h889l-92 -428h151l121 582h-1036z" />
<glyph unicode="&#xad;" horiz-adv-x="679" d="M193 475h499l39 184h-504z" />
<glyph unicode="&#xae;" horiz-adv-x="1507" d="M109 567q0 -174 84 -313q86 -141 229 -217q146 -78 326 -78q184 0 356 74q170 74 311 209q139 133 219 303q78 172 78 354q0 131 -45 242q-45 113 -135 198q-80 78 -197 123t-256 45q-166 0 -313 -57q-156 -59 -289 -162q-137 -106 -225 -248q-90 -145 -123 -305 q-14 -63 -16 -84q-4 -37 -4 -84zM264 584l21 151q37 176 151 328q115 152 279 233q166 84 338 84q152 0 264 -63q113 -63 176 -176t63 -264q0 -154 -63 -293q-63 -143 -172 -254q-106 -109 -250 -176q-143 -66 -295 -66q-147 0 -266 66q-119 63 -182 176q-63 109 -64 254z M520 289h135l80 387h158l156 -387h147l-168 391q127 16 209 104q80 86 80 211q0 98 -64 142q-63 43 -200 43h-344zM760 788l59 279h185q78 0 122 -18q45 -20 45 -80q0 -180 -247 -181h-164z" />
<glyph unicode="&#xb0;" horiz-adv-x="704" d="M283 1599q0 -59 39 -98q41 -41 116 -41q53 0 103 23q47 23 77 53q31 31 52 76q18 47 18 90q0 18 -4 39l-8 24l-6 15q-10 23 -49 47q-33 18 -86 18q-63 0 -117 -28q-55 -29 -82 -72q-33 -39 -45 -92zM356 1606l4 28l2 19q14 51 54 96q37 43 104 43q94 0 94 -96 q0 -41 -18 -84q-20 -43 -57 -70q-41 -29 -88 -29q-94 0 -95 93z" />
<glyph unicode="&#xb1;" horiz-adv-x="1196" d="M80 0h1036l33 147h-1036zM197 555h446l-72 -332h154l68 332h444l27 150h-441l74 331h-154l-71 -331h-445z" />
<glyph unicode="&#xb2;" horiz-adv-x="970" d="M35 1610h155l504 233l201 -233h156l-248 288h-148zM217 4h199l313 1473h-201z" />
<glyph unicode="&#xb3;" horiz-adv-x="1585" d="M252 352q0 -186 133 -289q131 -100 387 -100q150 0 291 70q143 72 240 200q98 135 133 312l196 928h-196l-203 -953q-12 -53 -23 -78q-20 -49 -34 -73q-39 -70 -97 -121q-57 -51 -129 -80q-45 -18 -78 -25q-31 -8 -75 -8q-340 0 -340 277l10 63l4 45l205 953h-201 l-207 -981l-2 -13q-4 -31 -6 -51q-4 -27 -8 -70v-6zM567 1614h156l504 233l200 -233h156l-248 289h-147z" />
<glyph unicode="&#xb4;" horiz-adv-x="2084" d="M344 1473l72 -1473h213l600 1221l76 -1221h211l700 1473h-219l-529 -1197h-8l-71 1197h-218l-591 -1197l-21 1197h-215zM1008 1618h161l177 192l94 -192h166l-142 291h-192z" />
<glyph unicode="&#xb5;" horiz-adv-x="1544" d="M344 1473l365 -877l-125 -596h200l123 592l746 881h-234l-575 -709l-273 709h-227zM733 1606h162l176 192l94 -192h166l-141 290h-193z" />
<glyph unicode="&#xb6;" horiz-adv-x="987" d="M6 1217h156l504 233l200 -233h156l-248 288h-147zM291 0h180l229 1071h-180z" />
<glyph unicode="&#xb7;" horiz-adv-x="1220" d="M193 209q0 -82 43 -141q47 -57 110 -78q68 -23 133 -23q123 0 213 47q41 18 88 60q35 31 84 82l-33 -156h173l4 25l221 1046h-180l-125 -592q-16 -86 -60 -164q-45 -80 -125 -135t-186 -55q-168 0 -168 156l10 79l154 711h-180l-164 -772zM289 1217h155l504 233l201 -233 h156l-248 288h-148z" />
<glyph unicode="&#xb8;" horiz-adv-x="1585" d="M256 1071l4 -22l76 -1049h188l383 831h8l41 -831h189l10 25l524 1046h-180l-395 -840l-4 -4l-29 844h-203l-389 -844l-26 844h-197zM676 1217h162l176 192l94 -192h166l-141 290h-193z" />
<glyph unicode="&#xb9;" horiz-adv-x="1155" d="M33 -424q49 -16 135 -16q76 0 135 34q57 33 131 136q90 127 187 290l198 336l178 306l232 409h-197l-477 -870l-98 870h-209l168 -1100l-109 -170q-31 -47 -61 -61q-33 -16 -78 -16q-51 0 -105 16zM467 1217h162l176 192l94 -192h166l-141 290h-193z" />
<glyph unicode="&#xba;" horiz-adv-x="747" d="M205 621h606l20 100h-608zM285 1067q0 -121 77 -180q78 -59 187 -60q135 0 248 80q114 80 147 260q12 61 12 109q0 127 -71 180q-72 51 -189 51q-84 0 -164 -30q-80 -31 -143 -107q-66 -76 -92 -203zM424 1087q37 317 248 318q143 0 143 -158l-2 -41l-4 -39 q-14 -88 -74 -159q-55 -72 -164 -72q-147 0 -147 151z" />
<glyph unicode="&#xbb;" d="M244 219l377 252l38 188l-268 252l-39 -180l180 -164l-247 -168zM655 219l377 252l35 188l-262 252l-41 -180l180 -164l-252 -168z" />
<glyph unicode="&#xbc;" horiz-adv-x="1708" d="M303 -41h121l1221 1481h-121zM399 1188h222l-129 -613h141l182 865h-110q-29 -66 -66 -103q-37 -33 -80 -43q-39 -10 -70 -14q-33 -4 -69 -4zM899 193h422l-41 -193h131l41 193h135l25 114h-135l118 557h-131l-540 -549zM1053 307l374 385l-84 -385h-290z" />
<glyph unicode="&#xbd;" horiz-adv-x="1708" d="M231 -41h117l1221 1481h-117zM340 1180h219l-127 -605h143l185 865h-117q-25 -61 -63 -101q-39 -37 -80 -45q-10 -2 -31 -6q-31 -6 -41 -8q-37 -4 -72 -4zM928 0h655l25 125h-500q70 82 197 143l104 47q137 61 225 144q82 76 82 196q0 98 -67 154q-68 55 -181 55 q-123 0 -235 -63q-115 -66 -154 -248h121q20 57 35 84q18 39 65 74q45 33 123 32q150 0 150 -100q0 -57 -31 -104q-33 -39 -74 -68q-53 -35 -116 -63l-135 -68q-113 -55 -181 -131q-74 -80 -108 -209z" />
<glyph unicode="&#xbe;" horiz-adv-x="1708" d="M264 788q0 -117 72 -176t184 -59q102 0 195 39q94 41 153 113q59 78 60 176q0 115 -117 147q72 29 117 88q45 57 45 135q0 88 -64 140q-63 49 -182 49q-113 0 -192 -43q-80 -43 -117 -105q-43 -66 -58 -137h123q45 166 201 166q139 0 139 -92q0 -82 -57 -121 q-59 -41 -137 -41h-58l-22 -102h47q82 0 133 -19q51 -18 51 -90q0 -92 -69 -137q-72 -47 -162 -47q-82 0 -113 35q-33 33 -33 86l5 47h-140zM428 -41h117l1218 1481h-114zM1008 193h424l-39 -193h127l45 193h135l24 114h-137l117 557h-127l-541 -549zM1159 307l381 385 l-84 -385h-297z" />
<glyph unicode="&#xbf;" horiz-adv-x="1251" d="M172 -96q0 -53 12 -92q12 -41 37 -80q47 -74 127 -109q78 -37 178 -37l49 2q115 12 220 62q102 49 184 151q80 104 113 267h-177q-39 -170 -129 -246q-90 -78 -198 -78q-98 0 -160 49q-63 45 -63 131q0 123 143 260l117 103q63 55 123 114q45 45 81 117q43 80 60 182 h-184q-18 -131 -80 -206q-59 -78 -176 -166q-113 -88 -177 -152q-61 -68 -88 -176l-8 -57zM727 864h197l49 211h-201z" />
<glyph unicode="&#xc0;" horiz-adv-x="1368" d="M29 0h202l244 428h592l57 -428h215l-219 1473h-223zM575 604l381 647l80 -647h-461zM756 1911l205 -287h135l-121 287h-219z" />
<glyph unicode="&#xc1;" horiz-adv-x="1368" d="M29 0h202l244 428h592l57 -428h215l-219 1473h-223zM575 604l381 647l80 -647h-461zM952 1624h135l330 287h-221z" />
<glyph unicode="&#xc2;" horiz-adv-x="1368" d="M29 0h202l244 428h592l57 -428h215l-219 1473h-223zM575 604l381 647l80 -647h-461zM743 1620h162l176 192l95 -192h165l-141 291h-192z" />
<glyph unicode="&#xc3;" horiz-adv-x="1368" d="M29 0h202l244 428h592l57 -428h215l-219 1473h-223zM575 604l381 647l80 -647h-461zM700 1647h97q20 41 47 67q23 25 69 25q18 0 60 -10l112 -41q37 -14 115 -25q164 0 248 225h-105q-8 -41 -38 -71q-33 -29 -76 -29q-39 6 -76 20l-88 39q-55 25 -113 25q-57 0 -104 -27 q-49 -27 -86 -80q-41 -53 -62 -118z" />
<glyph unicode="&#xc4;" horiz-adv-x="1368" d="M29 0h202l244 428h592l57 -428h215l-219 1473h-223zM575 604l381 647l80 -647h-461zM788 1647h189l43 208h-184zM1124 1647h185l43 208h-183z" />
<glyph unicode="&#xc5;" horiz-adv-x="1368" d="M29 0h202l244 428h592l57 -428h215l-219 1473h-223zM575 604l381 647l80 -647h-461zM877 1724q0 -129 163 -145q23 0 58 10q25 8 53 23q47 27 82 78q31 49 31 110q0 68 -41 111q-43 41 -111 41q-112 -1 -184 -97q-45 -57 -51 -131zM965 1743q10 61 39 88q41 41 88 41 q41 0 65 -25q23 -27 23 -63q0 -51 -39 -84q-41 -35 -88 -41q-37 6 -60 24q-23 16 -28 60z" />
<glyph unicode="&#xc6;" horiz-adv-x="2048" d="M14 0h217l250 428h543l-88 -428h1012l37 176h-816l107 492h729l39 176h-727l92 448h799l41 181h-1321zM592 604l420 688h198l-145 -688h-473z" />
<glyph unicode="&#xc7;" horiz-adv-x="1480" d="M219 516q0 -268 119 -399q120 -134 321 -154l-135 -139l29 -39l72 14q92 -10 92 -59t-45 -76q-47 -29 -92 -29q-57 0 -127 29l-50 -80q109 -49 197 -49q102 0 188 62q84 61 84 159q0 55 -36 92q-41 35 -101 35l-67 -12l84 88q113 0 213 31q102 33 184 82q160 94 237 217 q82 117 121 252h-190q-55 -160 -150 -248q-94 -88 -192 -123q-100 -35 -182 -35q-184 0 -277 117q-92 115 -92 293q12 133 55 274q41 143 117 256q45 68 88 107q43 43 100 80q113 70 260 69q152 0 259 -61q106 -61 106 -242h190q0 479 -516 479q-133 0 -274 -55 q-143 -55 -264 -162q-121 -106 -205 -264q-84 -160 -109 -350l-6 -82z" />
<glyph unicode="&#xc8;" horiz-adv-x="1368" d="M176 0h1084l40 176h-888l104 492h805l39 176h-805l92 452h877l37 177h-1074zM768 1903l205 -287h135l-121 287h-219z" />
<glyph unicode="&#xc9;" horiz-adv-x="1368" d="M176 0h1084l40 176h-888l104 492h805l39 176h-805l92 452h877l37 177h-1074zM928 1616h135l330 287h-222z" />
<glyph unicode="&#xca;" horiz-adv-x="1368" d="M176 0h1084l40 176h-888l104 492h805l39 176h-805l92 452h877l37 177h-1074zM719 1612h162l176 192l94 -192h166l-141 291h-193z" />
<glyph unicode="&#xcb;" horiz-adv-x="1368" d="M176 0h1084l40 176h-888l104 492h805l39 176h-805l92 452h877l37 177h-1074zM764 1638h188l43 209h-184zM1100 1638h184l43 209h-182z" />
<glyph unicode="&#xcc;" horiz-adv-x="567" d="M188 0h199l313 1473h-200zM360 1903l205 -287h135l-120 287h-220z" />
<glyph unicode="&#xcd;" horiz-adv-x="567" d="M188 0h199l313 1473h-200zM520 1616h135l330 287h-221z" />
<glyph unicode="&#xce;" horiz-adv-x="567" d="M188 0h199l313 1473h-200zM311 1612h162l176 192l94 -192h166l-141 291h-193z" />
<glyph unicode="&#xcf;" horiz-adv-x="567" d="M188 0h199l313 1473h-200zM356 1638h189l45 209h-187zM692 1638h185l45 209h-185z" />
<glyph unicode="&#xd0;" horiz-adv-x="1480" d="M139 668h164l-139 -668h600q174 0 323 82q150 84 254 219q106 139 164 303q59 172 60 332q0 141 -43 260q-43 121 -138 197q-94 76 -239 75h-666l-135 -624h-168zM403 172l105 492h381l39 180h-379l92 452h438q92 0 156 -55q61 -53 90 -141q27 -82 27 -193 q0 -96 -21 -180q-20 -88 -67 -184q-53 -109 -109 -183q-72 -90 -145 -137q-76 -51 -166 -51h-441z" />
<glyph unicode="&#xd1;" horiz-adv-x="1480" d="M156 0h192l256 1188l492 -1188h227l313 1473h-192l-256 -1188l-483 1188h-236zM760 1554h96q20 41 47 68q23 25 70 25q18 0 59 -11l113 -41q37 -14 115 -24q164 0 247 225h-104q-8 -41 -39 -72q-33 -29 -76 -28q-39 6 -76 20l-88 39q-55 25 -112 25t-105 -27 q-49 -27 -86 -80q-41 -53 -61 -119z" />
<glyph unicode="&#xd2;" horiz-adv-x="1591" d="M215 580q0 -166 39 -277q39 -115 117 -192q80 -78 186 -115q109 -37 252 -37q190 0 350 82q164 80 283 221q117 135 182 313q39 106 51 179q16 88 17 178q0 147 -39 252q-39 109 -113 180q-78 72 -186 111q-113 37 -258 36q-250 0 -457 -147q-104 -76 -178 -162 q-78 -88 -133 -198q-113 -215 -113 -424zM420 571q0 29 4 66q0 10 8 53q6 35 8 53q31 143 115 281q86 137 223 223q139 88 318 88q55 0 110 -16q53 -18 99 -49q90 -57 135 -154q45 -96 45 -219q0 -145 -49 -281q-51 -137 -144 -243q-92 -109 -211 -172q-121 -66 -258 -66 q-211 0 -307 129q-96 131 -96 307zM852 1819l205 -287h135l-121 287h-219z" />
<glyph unicode="&#xd3;" horiz-adv-x="1591" d="M215 580q0 -166 39 -277q39 -115 117 -192q80 -78 186 -115q109 -37 252 -37q190 0 350 82q164 80 283 221q117 135 182 313q39 106 51 179q16 88 17 178q0 147 -39 252q-39 109 -113 180q-78 72 -186 111q-113 37 -258 36q-250 0 -457 -147q-104 -76 -178 -162 q-78 -88 -133 -198q-113 -215 -113 -424zM420 571q0 29 4 66q0 10 8 53q6 35 8 53q31 143 115 281q86 137 223 223q139 88 318 88q55 0 110 -16q53 -18 99 -49q90 -57 135 -154q45 -96 45 -219q0 -145 -49 -281q-51 -137 -144 -243q-92 -109 -211 -172q-121 -66 -258 -66 q-211 0 -307 129q-96 131 -96 307zM1012 1532h135l330 287h-222z" />
<glyph unicode="&#xd4;" horiz-adv-x="1591" d="M215 580q0 -166 39 -277q39 -115 117 -192q80 -78 186 -115q109 -37 252 -37q190 0 350 82q164 80 283 221q117 135 182 313q39 106 51 179q16 88 17 178q0 147 -39 252q-39 109 -113 180q-78 72 -186 111q-113 37 -258 36q-250 0 -457 -147q-104 -76 -178 -162 q-78 -88 -133 -198q-113 -215 -113 -424zM420 571q0 29 4 66q0 10 8 53q6 35 8 53q31 143 115 281q86 137 223 223q139 88 318 88q55 0 110 -16q53 -18 99 -49q90 -57 135 -154q45 -96 45 -219q0 -145 -49 -281q-51 -137 -144 -243q-92 -109 -211 -172q-121 -66 -258 -66 q-211 0 -307 129q-96 131 -96 307zM844 1620h162l176 192l94 -192h166l-142 291h-192z" />
<glyph unicode="&#xd5;" horiz-adv-x="1591" d="M215 580q0 -166 39 -277q39 -115 117 -192q80 -78 186 -115q109 -37 252 -37q190 0 350 82q164 80 283 221q117 135 182 313q39 106 51 179q16 88 17 178q0 147 -39 252q-39 109 -113 180q-78 72 -186 111q-113 37 -258 36q-250 0 -457 -147q-104 -76 -178 -162 q-78 -88 -133 -198q-113 -215 -113 -424zM420 571q0 29 4 66q0 10 8 53q6 35 8 53q31 143 115 281q86 137 223 223q139 88 318 88q55 0 110 -16q53 -18 99 -49q90 -57 135 -154q45 -96 45 -219q0 -145 -49 -281q-51 -137 -144 -243q-92 -109 -211 -172q-121 -66 -258 -66 q-211 0 -307 129q-96 131 -96 307zM801 1647h96q20 41 47 67q23 25 70 25q18 0 59 -10l113 -41q37 -14 114 -25q164 0 248 225h-104q-8 -41 -39 -71q-33 -29 -76 -29q-39 6 -76 20l-88 39q-55 25 -112 25t-105 -27q-49 -27 -86 -80q-41 -53 -61 -118z" />
<glyph unicode="&#xd6;" horiz-adv-x="1591" d="M215 580q0 -166 39 -277q39 -115 117 -192q80 -78 186 -115q109 -37 252 -37q190 0 350 82q164 80 283 221q117 135 182 313q39 106 51 179q16 88 17 178q0 147 -39 252q-39 109 -113 180q-78 72 -186 111q-113 37 -258 36q-250 0 -457 -147q-104 -76 -178 -162 q-78 -88 -133 -198q-113 -215 -113 -424zM420 571q0 29 4 66q0 10 8 53q6 35 8 53q31 143 115 281q86 137 223 223q139 88 318 88q55 0 110 -16q53 -18 99 -49q90 -57 135 -154q45 -96 45 -219q0 -145 -49 -281q-51 -137 -144 -243q-92 -109 -211 -172q-121 -66 -258 -66 q-211 0 -307 129q-96 131 -96 307zM889 1647h188l43 208h-184zM1225 1647h184l43 208h-182z" />
<glyph unicode="&#xd7;" horiz-adv-x="1216" d="M205 426l117 -98l354 284l342 -282l115 96l-338 281l354 284l-117 94l-356 -282l-342 282l-119 -94l346 -284z" />
<glyph unicode="&#xd8;" horiz-adv-x="1591" d="M88 16l51 -57l201 176q152 -176 448 -176q199 0 359 82q164 80 287 219q121 139 188 318q66 178 66 358q0 199 -76 324l213 188l-53 59l-203 -180q-137 180 -453 180q-195 0 -348 -69q-158 -72 -268 -191q-109 -117 -174 -252q-68 -141 -88 -245q-25 -111 -25 -218 q0 -94 23 -180q23 -84 61 -151zM420 559q0 53 8 96q6 49 12 80q27 121 88 238q61 115 140 190q82 80 186 125q104 43 225 43q219 0 330 -147l-948 -836q-20 51 -29 98q-12 53 -12 113zM504 281l940 831q37 -82 37 -209q0 -193 -82 -364q-82 -176 -232 -291 q-150 -113 -344 -113q-211 0 -319 146z" />
<glyph unicode="&#xd9;" horiz-adv-x="1480" d="M252 352q0 -186 133 -289q131 -100 387 -100q150 0 291 70q143 72 240 200q98 135 133 312l196 928h-196l-203 -953q-12 -53 -23 -78q-20 -49 -34 -73q-39 -70 -97 -121q-57 -51 -129 -80q-45 -18 -78 -25q-31 -8 -75 -8q-340 0 -340 277l10 63l4 45l205 953h-201 l-207 -981l-2 -13q-4 -31 -6 -51q-4 -27 -8 -70v-6zM823 1911l205 -287h135l-121 287h-219z" />
<glyph unicode="&#xda;" horiz-adv-x="1480" d="M252 352q0 -186 133 -289q131 -100 387 -100q150 0 291 70q143 72 240 200q98 135 133 312l196 928h-196l-203 -953q-12 -53 -23 -78q-20 -49 -34 -73q-39 -70 -97 -121q-57 -51 -129 -80q-45 -18 -78 -25q-31 -8 -75 -8q-340 0 -340 277l10 63l4 45l205 953h-201 l-207 -981l-2 -13q-4 -31 -6 -51q-4 -27 -8 -70v-6zM983 1624h135l330 287h-221z" />
<glyph unicode="&#xdb;" horiz-adv-x="1480" d="M252 352q0 -186 133 -289q131 -100 387 -100q150 0 291 70q143 72 240 200q98 135 133 312l196 928h-196l-203 -953q-12 -53 -23 -78q-20 -49 -34 -73q-39 -70 -97 -121q-57 -51 -129 -80q-45 -18 -78 -25q-31 -8 -75 -8q-340 0 -340 277l10 63l4 45l205 953h-201 l-207 -981l-2 -13q-4 -31 -6 -51q-4 -27 -8 -70v-6zM774 1620h162l176 192l94 -192h166l-141 291h-193z" />
<glyph unicode="&#xdc;" horiz-adv-x="1480" d="M252 352q0 -186 133 -289q131 -100 387 -100q150 0 291 70q143 72 240 200q98 135 133 312l196 928h-196l-203 -953q-12 -53 -23 -78q-20 -49 -34 -73q-39 -70 -97 -121q-57 -51 -129 -80q-45 -18 -78 -25q-31 -8 -75 -8q-340 0 -340 277l10 63l4 45l205 953h-201 l-207 -981l-2 -13q-4 -31 -6 -51q-4 -27 -8 -70v-6zM819 1647h189l43 208h-185zM1155 1647h184l43 208h-182z" />
<glyph unicode="&#xdd;" horiz-adv-x="1368" d="M344 1473l365 -877l-125 -596h200l123 592l746 881h-234l-575 -709l-273 709h-227zM983 1624h135l330 287h-221z" />
<glyph unicode="&#xde;" horiz-adv-x="1368" d="M176 0h201l76 377h479q143 0 264 76q119 74 190 194q70 119 70 260q0 158 -94 240t-258 82h-471l55 244h-201zM487 549l113 504l424 4q86 0 156 -37q68 -39 67 -143q0 -96 -45 -168q-45 -76 -125 -119q-78 -45 -174 -45z" />
<glyph unicode="&#xdf;" horiz-adv-x="1251" d="M135 0h180l222 1044q35 145 112 218q78 74 244 73q82 0 149 -22q63 -29 91 -70q27 -41 26 -98q0 -92 -57 -154q-55 -61 -144 -90q-90 -29 -170 -29l-22 2l-27 3l-34 -160q23 8 83 8q295 0 295 -209l-8 -80q-33 -154 -137 -229q-109 -78 -274 -78l-93 6l-30 -151 q61 -16 106 -17q123 0 236 43q117 45 204 123q86 78 140 186q49 109 49 234q0 57 -19 113q-2 4 -2 6q-18 37 -24 49q-16 25 -33 41q-41 43 -94 57q72 37 127 96q53 61 84 136q29 76 28 149q0 90 -49 158q-53 70 -145 102q-92 33 -221 33q-154 0 -269 -51q-119 -53 -188 -142 q-74 -94 -102 -213l-13 -38z" />
<glyph unicode="&#xe0;" d="M125 205q0 -109 82 -172q84 -66 213 -66q61 0 139 23q10 2 19 6q45 14 57 20q14 4 49 25l16 8q76 43 127 94l-8 -43q0 -117 158 -116q68 0 110 20l29 125q-37 0 -67 -8q-49 10 -50 35l9 37l129 612q2 4 4 12t4 19v32q0 109 -86 172q-88 63 -279 64q-147 0 -252 -49 q-102 -51 -161 -129q-61 -80 -82 -178h168q39 125 114 165q72 39 168 39q229 0 230 -137l-2 -16l-2 -15l-13 -36q-6 -37 -33 -64q-26 -27 -67 -33q-129 -12 -281 -33q-104 -14 -198 -51q-86 -33 -146 -102q-61 -66 -88 -180l-6 -39zM319 264q0 92 62 142q59 49 113 57 l204 33q150 20 205 49l-43 -189q-25 -115 -135 -174q-63 -31 -115 -45q-66 -16 -123 -16l-16 -4q-82 0 -117 37q-35 38 -35 110zM580 1503l204 -286h136l-121 286h-219z" />
<glyph unicode="&#xe1;" d="M125 205q0 -109 82 -172q84 -66 213 -66q61 0 139 23q10 2 19 6q45 14 57 20q14 4 49 25l16 8q76 43 127 94l-8 -43q0 -117 158 -116q68 0 110 20l29 125q-37 0 -67 -8q-49 10 -50 35l9 37l129 612q2 4 4 12t4 19v32q0 109 -86 172q-88 63 -279 64q-147 0 -252 -49 q-102 -51 -161 -129q-61 -80 -82 -178h168q39 125 114 165q72 39 168 39q229 0 230 -137l-2 -16l-2 -15l-13 -36q-6 -37 -33 -64q-26 -27 -67 -33q-129 -12 -281 -33q-104 -14 -198 -51q-86 -33 -146 -102q-61 -66 -88 -180l-6 -39zM319 264q0 92 62 142q59 49 113 57 l204 33q150 20 205 49l-43 -189q-25 -115 -135 -174q-63 -31 -115 -45q-66 -16 -123 -16l-16 -4q-82 0 -117 37q-35 38 -35 110zM739 1217h135l330 286h-221z" />
<glyph unicode="&#xe2;" d="M125 205q0 -109 82 -172q84 -66 213 -66q61 0 139 23q10 2 19 6q45 14 57 20q14 4 49 25l16 8q76 43 127 94l-8 -43q0 -117 158 -116q68 0 110 20l29 125q-37 0 -67 -8q-49 10 -50 35l9 37l129 612q2 4 4 12t4 19v32q0 109 -86 172q-88 63 -279 64q-147 0 -252 -49 q-102 -51 -161 -129q-61 -80 -82 -178h168q39 125 114 165q72 39 168 39q229 0 230 -137l-2 -16l-2 -15l-13 -36q-6 -37 -33 -64q-26 -27 -67 -33q-129 -12 -281 -33q-104 -14 -198 -51q-86 -33 -146 -102q-61 -66 -88 -180l-6 -39zM319 264q0 92 62 142q59 49 113 57 l204 33q150 20 205 49l-43 -189q-25 -115 -135 -174q-63 -31 -115 -45q-66 -16 -123 -16l-16 -4q-82 0 -117 37q-35 38 -35 110zM530 1217h162l176 192l95 -192h165l-141 290h-192z" />
<glyph unicode="&#xe3;" d="M125 205q0 -109 82 -172q84 -66 213 -66q61 0 139 23q10 2 19 6q45 14 57 20q14 4 49 25l16 8q76 43 127 94l-8 -43q0 -117 158 -116q68 0 110 20l29 125q-37 0 -67 -8q-49 10 -50 35l9 37l129 612q2 4 4 12t4 19v32q0 109 -86 172q-88 63 -279 64q-147 0 -252 -49 q-102 -51 -161 -129q-61 -80 -82 -178h168q39 125 114 165q72 39 168 39q229 0 230 -137l-2 -16l-2 -15l-13 -36q-6 -37 -33 -64q-26 -27 -67 -33q-129 -12 -281 -33q-104 -14 -198 -51q-86 -33 -146 -102q-61 -66 -88 -180l-6 -39zM319 264q0 92 62 142q59 49 113 57 l204 33q150 20 205 49l-43 -189q-25 -115 -135 -174q-63 -31 -115 -45q-66 -16 -123 -16l-16 -4q-82 0 -117 37q-35 38 -35 110zM469 1243h96q20 41 47 68q23 25 70 24q18 0 59 -10l113 -41q37 -14 115 -24q164 0 248 225h-105q-8 -41 -39 -72q-33 -29 -76 -29q-39 6 -75 21 l-88 39q-55 25 -113 24q-57 0 -105 -26q-49 -27 -86 -80q-41 -53 -61 -119z" />
<glyph unicode="&#xe4;" d="M125 205q0 -109 82 -172q84 -66 213 -66q61 0 139 23q10 2 19 6q45 14 57 20q14 4 49 25l16 8q76 43 127 94l-8 -43q0 -117 158 -116q68 0 110 20l29 125q-37 0 -67 -8q-49 10 -50 35l9 37l129 612q2 4 4 12t4 19v32q0 109 -86 172q-88 63 -279 64q-147 0 -252 -49 q-102 -51 -161 -129q-61 -80 -82 -178h168q39 125 114 165q72 39 168 39q229 0 230 -137l-2 -16l-2 -15l-13 -36q-6 -37 -33 -64q-26 -27 -67 -33q-129 -12 -281 -33q-104 -14 -198 -51q-86 -33 -146 -102q-61 -66 -88 -180l-6 -39zM319 264q0 92 62 142q59 49 113 57 l204 33q150 20 205 49l-43 -189q-25 -115 -135 -174q-63 -31 -115 -45q-66 -16 -123 -16l-16 -4q-82 0 -117 37q-35 38 -35 110zM571 1239h189l43 209h-185zM907 1239h185l43 209h-183z" />
<glyph unicode="&#xe5;" d="M125 205q0 -109 82 -172q84 -66 213 -66q61 0 139 23q10 2 19 6q45 14 57 20q14 4 49 25l16 8q76 43 127 94l-8 -43q0 -117 158 -116q68 0 110 20l29 125q-37 0 -67 -8q-49 10 -50 35l9 37l129 612q2 4 4 12t4 19v32q0 109 -86 172q-88 63 -279 64q-147 0 -252 -49 q-102 -51 -161 -129q-61 -80 -82 -178h168q39 125 114 165q72 39 168 39q229 0 230 -137l-2 -16l-2 -15l-13 -36q-6 -37 -33 -64q-26 -27 -67 -33q-129 -12 -281 -33q-104 -14 -198 -51q-86 -33 -146 -102q-61 -66 -88 -180l-6 -39zM319 264q0 92 62 142q59 49 113 57 l204 33q150 20 205 49l-43 -189q-25 -115 -135 -174q-63 -31 -115 -45q-66 -16 -123 -16l-16 -4q-82 0 -117 37q-35 38 -35 110zM659 1317q0 -129 164 -146q23 0 58 11q25 8 53 22q47 27 82 78q31 49 31 111q0 68 -41 110q-43 41 -111 41q-112 0 -184 -96q-45 -57 -52 -131z M748 1335q9 61 38 88q41 41 88 41q41 0 66 -24q23 -27 23 -64q0 -51 -39 -84q-41 -35 -88 -41q-37 6 -60 25q-23 16 -28 59z" />
<glyph unicode="&#xe6;" horiz-adv-x="1820" d="M121 205q0 -66 37 -125q31 -55 100 -84q68 -29 145 -29q94 0 181 25q80 20 159 71q41 29 74 56q27 23 72 74q68 -225 344 -226q117 0 233 41q111 39 203 125q84 84 123 203h-180q-12 -41 -58 -92q-41 -47 -118 -84q-72 -35 -148 -35q-248 0 -248 227q0 6 2 13q2 31 7 55 q2 27 8 53v2h778q25 121 25 230q0 195 -86 294q-88 100 -267 101q-92 0 -172 -23q-74 -27 -118 -55l-97 -74q-59 80 -116 115q-63 37 -199 37q-430 0 -520 -357h164q23 53 49 99q25 41 88 78q57 33 153 32q221 0 222 -137q0 -66 -33 -110q-35 -47 -92 -54l-308 -39 q-332 -39 -397 -336zM315 248l4 28l5 27q18 94 94 127q74 35 174 49q254 33 311 66l-39 -176q-12 -70 -73 -129q-53 -53 -138 -88q-88 -35 -174 -35q-164 0 -164 131zM1083 621q16 66 47 116q35 57 89 105q47 43 104 69q61 29 125 29q233 0 233 -240l-2 -79h-596z" />
<glyph unicode="&#xe7;" horiz-adv-x="1024" d="M152 348q0 -152 67 -244q68 -94 225 -129l-151 -155l31 -35l32 6l39 8q92 -10 92 -63q0 -43 -41 -72t-94 -29q-51 0 -125 29l-51 -80q96 -45 197 -45q80 0 141 31t96 78q20 33 27 49q10 27 10 47q0 63 -39 102q-39 37 -104 37l-64 -12l92 96q106 0 195 37q88 37 154 96 q68 61 114 136q43 72 62 141h-176q-35 -100 -119 -174q-88 -78 -213 -78q-100 0 -152 76q-53 76 -53 186q0 68 14 125q10 53 41 131q51 129 150 215q94 82 207 82q125 0 162 -47q35 -47 34 -141v-43h176l7 82q0 113 -50 182q-53 72 -131 98q-82 29 -166 29q-76 0 -139 -21 q-66 -20 -139 -61q-133 -78 -223 -213q-92 -139 -123 -322z" />
<glyph unicode="&#xe8;" d="M172 348q0 -174 102 -276q102 -104 289 -105q184 0 332 99q145 98 221 270h-180q-37 -84 -127 -148q-90 -63 -188 -63q-260 0 -261 235q2 8 2 19q4 29 7 43q2 23 6 49l2 8h782q25 115 25 230q0 182 -82 288t-271 107q-256 0 -421 -168q-166 -168 -217 -432zM403 621 q25 100 86 170q57 70 138 110q76 39 149 39q231 0 232 -235l-4 -84h-601zM575 1503l205 -286h135l-120 286h-220z" />
<glyph unicode="&#xe9;" d="M172 348q0 -174 102 -276q102 -104 289 -105q184 0 332 99q145 98 221 270h-180q-37 -84 -127 -148q-90 -63 -188 -63q-260 0 -261 235q2 8 2 19q4 29 7 43q2 23 6 49l2 8h782q25 115 25 230q0 182 -82 288t-271 107q-256 0 -421 -168q-166 -168 -217 -432zM403 621 q25 100 86 170q57 70 138 110q76 39 149 39q231 0 232 -235l-4 -84h-601zM735 1217h135l330 286h-221z" />
<glyph unicode="&#xea;" d="M172 348q0 -174 102 -276q102 -104 289 -105q184 0 332 99q145 98 221 270h-180q-37 -84 -127 -148q-90 -63 -188 -63q-260 0 -261 235q2 8 2 19q4 29 7 43q2 23 6 49l2 8h782q25 115 25 230q0 182 -82 288t-271 107q-256 0 -421 -168q-166 -168 -217 -432zM403 621 q25 100 86 170q57 70 138 110q76 39 149 39q231 0 232 -235l-4 -84h-601zM530 1217h162l176 192l95 -192h165l-141 290h-192z" />
<glyph unicode="&#xeb;" d="M172 348q0 -174 102 -276q102 -104 289 -105q184 0 332 99q145 98 221 270h-180q-37 -84 -127 -148q-90 -63 -188 -63q-260 0 -261 235q2 8 2 19q4 29 7 43q2 23 6 49l2 8h782q25 115 25 230q0 182 -82 288t-271 107q-256 0 -421 -168q-166 -168 -217 -432zM403 621 q25 100 86 170q57 70 138 110q76 39 149 39q231 0 232 -235l-4 -84h-601zM575 1239h189l43 209h-184zM911 1239h185l43 209h-183z" />
<glyph unicode="&#xec;" horiz-adv-x="567" d="M193 0h184l223 1071h-180zM297 1503l205 -286h135l-121 286h-219z" />
<glyph unicode="&#xed;" horiz-adv-x="567" d="M193 0h184l223 1071h-180zM457 1217h135l330 286h-222z" />
<glyph unicode="&#xee;" horiz-adv-x="567" d="M193 0h184l223 1071h-180zM248 1217h162l176 192l94 -192h166l-141 290h-193z" />
<glyph unicode="&#xef;" horiz-adv-x="567" d="M193 0h184l223 1071h-180zM289 1239h188l43 209h-184zM625 1239h184l43 209h-182z" />
<glyph unicode="&#xf0;" d="M164 377q0 -178 104 -293q102 -117 312 -117q150 0 268 76q121 74 203 199q78 121 125 270q43 145 43 285q0 150 -56 286q-51 135 -143 240l244 104l-80 80l-240 -102q-80 74 -164 102l-168 -71q92 -41 160 -109l-264 -115l67 -84l281 123q135 -129 164 -290l-4 -5 q-51 74 -113 95q-59 20 -135 20q-176 0 -309 -102t-207 -262q-45 -92 -66 -170q-23 -84 -22 -160zM356 403l13 117q14 78 61 168q45 86 129 158q82 70 205 69q129 0 182 -84t53 -202q0 -117 -49 -234q-51 -115 -141 -192q-90 -78 -213 -78q-240 0 -240 278z" />
<glyph unicode="&#xf1;" d="M131 0h180l129 584q29 139 92 219q68 80 134 108q74 29 131 29q100 0 139 -39q41 -41 41 -121q0 -55 -12 -121l-138 -659h181l155 727q12 61 13 109q0 102 -48 165q-47 61 -116 82q-68 20 -148 21q-119 0 -213 -57q-88 -55 -151 -127l32 151h-172l-4 -22zM469 1243h96 q20 41 47 68q23 25 70 24q18 0 59 -10l113 -41q37 -14 115 -24q164 0 248 225h-105q-8 -41 -39 -72q-33 -29 -76 -29q-39 6 -75 21l-88 39q-55 25 -113 24q-57 0 -105 -26q-49 -27 -86 -80q-41 -53 -61 -119z" />
<glyph unicode="&#xf2;" d="M168 381q0 -92 27 -164q25 -72 73 -131q98 -115 295 -115q131 0 252 60q119 59 203 162q41 45 78 110q35 61 53 119q25 72 35 129q12 66 12 129q0 115 -41 215q-39 96 -129 154q-88 55 -221 55q-164 0 -291 -82q-129 -82 -213 -211q-86 -133 -113 -274q0 -2 -2 -13 q-2 -29 -8 -55q-10 -51 -10 -88zM356 399l9 80l8 58q35 152 131 280q94 131 268 131q236 0 236 -284q0 -59 -13 -125q-10 -59 -34 -123q-49 -125 -144 -205q-94 -82 -221 -82q-240 0 -240 270zM580 1503l204 -286h136l-121 286h-219z" />
<glyph unicode="&#xf3;" d="M168 381q0 -92 27 -164q25 -72 73 -131q98 -115 295 -115q131 0 252 60q119 59 203 162q41 45 78 110q35 61 53 119q25 72 35 129q12 66 12 129q0 115 -41 215q-39 96 -129 154q-88 55 -221 55q-164 0 -291 -82q-129 -82 -213 -211q-86 -133 -113 -274q0 -2 -2 -13 q-2 -29 -8 -55q-10 -51 -10 -88zM356 399l9 80l8 58q35 152 131 280q94 131 268 131q236 0 236 -284q0 -59 -13 -125q-10 -59 -34 -123q-49 -125 -144 -205q-94 -82 -221 -82q-240 0 -240 270zM739 1217h135l330 286h-221z" />
<glyph unicode="&#xf4;" d="M168 381q0 -92 27 -164q25 -72 73 -131q98 -115 295 -115q131 0 252 60q119 59 203 162q41 45 78 110q35 61 53 119q25 72 35 129q12 66 12 129q0 115 -41 215q-39 96 -129 154q-88 55 -221 55q-164 0 -291 -82q-129 -82 -213 -211q-86 -133 -113 -274q0 -2 -2 -13 q-2 -29 -8 -55q-10 -51 -10 -88zM356 399l9 80l8 58q35 152 131 280q94 131 268 131q236 0 236 -284q0 -59 -13 -125q-10 -59 -34 -123q-49 -125 -144 -205q-94 -82 -221 -82q-240 0 -240 270zM530 1217h162l176 192l95 -192h165l-141 290h-192z" />
<glyph unicode="&#xf5;" d="M168 381q0 -92 27 -164q25 -72 73 -131q98 -115 295 -115q131 0 252 60q119 59 203 162q41 45 78 110q35 61 53 119q25 72 35 129q12 66 12 129q0 115 -41 215q-39 96 -129 154q-88 55 -221 55q-164 0 -291 -82q-129 -82 -213 -211q-86 -133 -113 -274q0 -2 -2 -13 q-2 -29 -8 -55q-10 -51 -10 -88zM356 399l9 80l8 58q35 152 131 280q94 131 268 131q236 0 236 -284q0 -59 -13 -125q-10 -59 -34 -123q-49 -125 -144 -205q-94 -82 -221 -82q-240 0 -240 270zM487 1243h97q20 41 47 68q23 25 69 24q18 0 60 -10l112 -41q37 -14 115 -24 q164 0 248 225h-105q-8 -41 -38 -72q-33 -29 -76 -29q-39 6 -76 21l-88 39q-55 25 -113 24q-57 0 -104 -26q-49 -27 -86 -80q-41 -53 -62 -119z" />
<glyph unicode="&#xf6;" d="M168 381q0 -92 27 -164q25 -72 73 -131q98 -115 295 -115q131 0 252 60q119 59 203 162q41 45 78 110q35 61 53 119q25 72 35 129q12 66 12 129q0 115 -41 215q-39 96 -129 154q-88 55 -221 55q-164 0 -291 -82q-129 -82 -213 -211q-86 -133 -113 -274q0 -2 -2 -13 q-2 -29 -8 -55q-10 -51 -10 -88zM356 399l9 80l8 58q35 152 131 280q94 131 268 131q236 0 236 -284q0 -59 -13 -125q-10 -59 -34 -123q-49 -125 -144 -205q-94 -82 -221 -82q-240 0 -240 270zM571 1239h189l43 209h-185zM907 1239h185l43 209h-183z" />
<glyph unicode="&#xf7;" horiz-adv-x="913" d="M18 520h875l70 185h-883zM266 135h211l49 215h-217zM426 868h211l49 215h-217z" />
<glyph unicode="&#xf8;" horiz-adv-x="1251" d="M59 8l50 -55l155 139q98 -125 299 -125q133 0 250 62q117 61 205 168q84 102 131 231q25 72 35 129q12 66 12 127q0 119 -43 219l170 162l-51 51l-160 -147q-100 131 -307 131q-158 0 -291 -80q-131 -80 -215 -209q-86 -135 -115 -274q-2 -6 -2 -21q-2 -12 -2 -18 q-2 -10 -2 -29q-6 -49 -10 -84q0 -70 14 -125q16 -57 37 -104zM356 395q12 141 58 264q43 123 131 205q86 80 223 80q141 0 205 -104l-604 -547l-4 26l-5 25v23zM403 219l592 545q12 -49 13 -109q0 -121 -52 -243q-53 -127 -141 -207q-92 -80 -219 -80q-137 0 -193 94z" />
<glyph unicode="&#xf9;" d="M193 209q0 -82 43 -141q47 -57 110 -78q68 -23 133 -23q123 0 213 47q41 18 88 60q35 31 84 82l-33 -156h173l4 25l221 1046h-180l-125 -592q-16 -86 -60 -164q-45 -80 -125 -135t-186 -55q-168 0 -168 156l10 79l154 711h-180l-164 -772zM575 1503l205 -286h135 l-120 286h-220z" />
<glyph unicode="&#xfa;" d="M193 209q0 -82 43 -141q47 -57 110 -78q68 -23 133 -23q123 0 213 47q41 18 88 60q35 31 84 82l-33 -156h173l4 25l221 1046h-180l-125 -592q-16 -86 -60 -164q-45 -80 -125 -135t-186 -55q-168 0 -168 156l10 79l154 711h-180l-164 -772zM735 1217h135l330 286h-221z " />
<glyph unicode="&#xfb;" d="M193 209q0 -82 43 -141q47 -57 110 -78q68 -23 133 -23q123 0 213 47q41 18 88 60q35 31 84 82l-33 -156h173l4 25l221 1046h-180l-125 -592q-16 -86 -60 -164q-45 -80 -125 -135t-186 -55q-168 0 -168 156l10 79l154 711h-180l-164 -772zM530 1217h162l176 192l95 -192 h165l-141 290h-192z" />
<glyph unicode="&#xfc;" d="M193 209q0 -82 43 -141q47 -57 110 -78q68 -23 133 -23q123 0 213 47q41 18 88 60q35 31 84 82l-33 -156h173l4 25l221 1046h-180l-125 -592q-16 -86 -60 -164q-45 -80 -125 -135t-186 -55q-168 0 -168 156l10 79l154 711h-180l-164 -772zM571 1239h189l43 209h-185z M907 1239h185l43 209h-183z" />
<glyph unicode="&#xfd;" horiz-adv-x="1024" d="M33 -424q49 -16 135 -16q76 0 135 34q57 33 131 136q90 127 187 290l198 336l178 306l232 409h-197l-477 -870l-98 870h-209l168 -1100l-109 -170q-31 -47 -61 -61q-33 -16 -78 -16q-51 0 -105 16zM680 1217h135l330 286h-221z" />
<glyph unicode="&#xfe;" d="M29 -424h180l115 537q68 -145 256 -146q180 0 323 115q141 113 217 287q76 170 76 352q0 174 -90 276q-92 102 -262 103q-98 0 -152 -21q-57 -20 -98 -55l-98 -100l116 549h-180zM377 369l14 114q25 113 68 213q41 104 123 174t198 70q227 0 228 -235q0 -92 -25 -195 q-10 -47 -29 -98q-16 -45 -43 -90q-51 -94 -125 -144q-78 -53 -178 -53q-88 0 -159 59q-72 59 -72 185z" />
<glyph unicode="&#xff;" horiz-adv-x="1024" d="M33 -424q49 -16 135 -16q76 0 135 34q57 33 131 136q90 127 187 290l198 336l178 306l232 409h-197l-477 -870l-98 870h-209l168 -1100l-109 -170q-31 -47 -61 -61q-33 -16 -78 -16q-51 0 -105 16zM516 1239h189l43 209h-185zM852 1239h184l43 209h-182z" />
<glyph unicode="&#x152;" horiz-adv-x="2048" d="M197 483q0 -152 55 -274q51 -119 156 -186q100 -63 256 -64q166 0 251 49q88 51 185 144l-33 -152h909l35 176h-719l109 492h680l39 176h-684l96 448h717l39 181h-904l-36 -152q-76 186 -324 186q-201 0 -350 -88q-156 -90 -256 -241q-51 -76 -90 -158q-47 -100 -70 -180 q-33 -113 -45 -183q-16 -92 -16 -174zM399 496q0 49 9 96q4 23 8 47q6 43 8 53q143 647 563 647q90 0 154 -30q72 -27 104 -86q35 -59 35 -136l-8 -79l-113 -537q-27 -117 -92 -195q-70 -80 -152 -112q-88 -35 -155 -35q-109 0 -185 29q-74 29 -108 84q-39 55 -55 145l-6 53 z" />
<glyph unicode="&#x153;" horiz-adv-x="1931" d="M164 385q0 -178 100 -297q102 -121 299 -121q45 0 107 10q55 10 112 31q121 43 209 168q98 -209 352 -209q186 0 349 99q160 94 213 270h-181q-12 -39 -59 -92q-20 -23 -51 -47q-27 -20 -62 -37q-76 -35 -147 -35q-125 0 -191 59t-65 176l4 35l4 43l6 37h789 q25 121 24 221q0 137 -39 224q-39 88 -120 135q-82 45 -197 45q-49 0 -92 -6q-31 -4 -84 -17q-39 -12 -76 -28q-33 -14 -72 -41q-74 -47 -137 -123q-43 109 -133 162q-94 53 -221 53q-188 0 -328 -103q-143 -102 -219 -264q-80 -168 -94 -348zM356 399q0 6 2 15q2 35 7 61 q2 31 8 62q33 150 129 278q96 129 266 129q240 0 240 -285q0 -117 -50 -243q-49 -125 -141 -209q-90 -82 -221 -82q-117 0 -178 70q-61 72 -62 204zM1192 621q23 88 80 157q55 70 133 117q76 45 160 45q236 0 235 -231q0 -47 -8 -88h-600z" />
<glyph unicode="&#x178;" horiz-adv-x="1544" d="M344 1473l365 -877l-125 -596h200l123 592l746 881h-234l-575 -709l-273 709h-227zM754 1632h188l43 209h-184zM1090 1632h184l43 209h-182z" />
<glyph unicode="&#x2c6;" horiz-adv-x="679" d="M299 1212h162l176 193l94 -193h166l-141 291h-193z" />
<glyph unicode="&#x2dc;" horiz-adv-x="679" d="M256 1239h96q20 41 47 68q20 25 70 24q18 0 59 -10l113 -41q37 -14 115 -25q164 0 248 226h-105q-8 -41 -39 -72q-33 -29 -76 -29q-39 6 -75 21l-88 39q-55 25 -113 24q-57 0 -105 -26q-49 -27 -86 -80q-41 -53 -61 -119z" />
<glyph unicode="&#x2000;" horiz-adv-x="976" />
<glyph unicode="&#x2001;" horiz-adv-x="1952" />
<glyph unicode="&#x2002;" horiz-adv-x="976" />
<glyph unicode="&#x2003;" horiz-adv-x="1952" />
<glyph unicode="&#x2004;" horiz-adv-x="650" />
<glyph unicode="&#x2005;" horiz-adv-x="488" />
<glyph unicode="&#x2006;" horiz-adv-x="325" />
<glyph unicode="&#x2007;" horiz-adv-x="325" />
<glyph unicode="&#x2008;" horiz-adv-x="244" />
<glyph unicode="&#x2009;" horiz-adv-x="390" />
<glyph unicode="&#x200a;" horiz-adv-x="108" />
<glyph unicode="&#x2010;" horiz-adv-x="679" d="M193 475h499l39 184h-504z" />
<glyph unicode="&#x2011;" horiz-adv-x="679" d="M193 475h499l39 184h-504z" />
<glyph unicode="&#x2012;" horiz-adv-x="679" d="M193 475h499l39 184h-504z" />
<glyph unicode="&#x2013;" horiz-adv-x="2048" d="M109 492h2043l27 149h-2044z" />
<glyph unicode="&#x2014;" d="M104 492h1139l33 149h-1141z" />
<glyph unicode="&#x2018;" horiz-adv-x="456" d="M340 965h213l43 215h-109q25 96 56 147q27 53 98 62l18 96q-215 -43 -274 -305z" />
<glyph unicode="&#x2019;" horiz-adv-x="456" d="M307 948q74 14 133 62q55 41 97 106q35 66 51 141l49 218h-213l-47 -220h106q-34 -192 -155 -206z" />
<glyph unicode="&#x201a;" horiz-adv-x="567" d="M117 -299q111 16 180 98q70 82 94 201l49 215h-217l-43 -215h109q-49 -201 -154 -209z" />
<glyph unicode="&#x201c;" horiz-adv-x="679" d="M281 961h215l45 219h-109q39 195 152 209l20 96q-92 -12 -168 -88q-78 -78 -104 -205zM621 961h210l50 219h-113q29 100 59 147q31 51 97 62l20 96q-100 -12 -176 -94t-104 -211z" />
<glyph unicode="&#x201d;" horiz-adv-x="679" d="M252 948q117 25 188 109q72 84 92 194l48 222h-215l-46 -222h109q-39 -191 -156 -207zM592 948q123 29 186 105q61 78 90 198l52 222h-215l-50 -222h109q-39 -193 -152 -207z" />
<glyph unicode="&#x201e;" horiz-adv-x="679" d="M-12 -307q121 31 186 108q66 78 90 199l47 215h-211l-49 -215h109q-27 -180 -152 -213zM324 -303q70 6 127 49q55 41 96 111q41 66 57 143l43 215h-211l-49 -215h109q-8 -90 -54 -150q-43 -57 -94 -63z" />
<glyph unicode="&#x2022;" horiz-adv-x="716" d="M182 668q0 -53 23 -103q14 -43 53 -82q74 -72 186 -71q88 0 174 43q86 45 144 120q60 78 74 160l4 70q0 76 -33 133q-31 55 -90 90q-57 33 -133 33q-109 0 -195 -55q-90 -59 -137 -146q-51 -86 -70 -192z" />
<glyph unicode="&#x2026;" horiz-adv-x="2048" d="M236 0h213l47 215h-211zM915 0h218l47 215h-215zM1599 0h218l43 215h-211z" />
<glyph unicode="&#x202f;" horiz-adv-x="390" />
<glyph unicode="&#x2039;" horiz-adv-x="679" d="M281 471l268 -252l39 180l-180 168l247 164l41 180l-377 -252z" />
<glyph unicode="&#x203a;" horiz-adv-x="679" d="M223 219l377 252l43 188l-266 252l-41 -180l180 -164l-252 -168z" />
<glyph unicode="&#x205f;" horiz-adv-x="488" />
<glyph unicode="&#x2122;" horiz-adv-x="2048" d="M381 1348h260l-154 -723h150l151 723h265l22 125h-667zM1044 625h148l151 688l121 -688h101l415 688l-147 -688h152l180 848h-234l-366 -625l-109 625h-231z" />
<glyph unicode="&#x25fc;" horiz-adv-x="1075" d="M0 0v1075h1075v-1075h-1075z" />
</font>
</defs>
</svg>
